<?xml version="1.0" encoding="UTF-8"?>
<svg id="Layer_1" xmlns="http://www.w3.org/2000/svg" viewBox="0 0 360.56 63.81">
  <defs>
    <style>.cls-1{fill:#fff;}.cls-2{fill:#3273dc;}</style>
  </defs>
  <g>
    <path
      d="M106.39,41.59v17.25h-10.51V19.74c0-2.7,0-5.46-.06-8.16h10.33c.13,.64,.25,2.88,.25,4.28,1.87-2.72,5.25-5.18,11.59-5.18,8.6,0,15.61,7.15,15.61,16.87,0,11.57-8.29,18.18-16.95,18.18-5.48,0-8.66-2.11-10.24-4.14Zm16.39-13.47c0-4.89-2.76-9.27-8.19-9.27-6.11,0-8.44,3.91-8.44,9.41s2.86,9.19,8.31,9.19,8.32-3.78,8.32-9.33Z" />
    <path
      d="M169.71,35.51c0,4.32,.19,8.6,.27,9.32h-9.93c-.26-.79-.33-2.82-.39-3.75-1.79,2.87-5.62,4.66-11.87,4.66-9.1,0-12.77-5.54-12.77-10.86,0-8.73,7.64-11.15,17.44-11.15h6.96v-1.05c0-2.7-1.17-4.87-6.05-4.87-4.55,0-5.55,1.7-5.98,3.61h-10.51c.28-4.1,3.18-10.73,16.33-10.73,14.44,0,16.49,6.8,16.49,12.36v12.47Zm-10.28-5.14c-.76-.06-3.05-.06-6.78-.06-5.34,0-7.45,1.41-7.45,4.03,0,2.16,1.75,3.91,5.56,3.91,5.76,0,8.67-2.64,8.67-7.37v-.51Z" />
    <path
      d="M181.11,11.57c5.72,14.42,8.19,22.45,8.84,24.84h.18c.89-3.32,3.49-12.13,7.98-24.84h10.71l-11.1,28.51c-5.74,14.81-7.49,19.66-18.84,19.66-1.48,0-3.94-.13-5.15-.38v-8.48c1.55,.14,2.29,.15,3.34,.15,4.54,0,5.58-1.44,7.32-4.95l-14.8-34.52h11.52Z" />
    <path
      d="M243.39,33.59c-1.34,6.29-6.75,12.13-17.65,12.13-12.8,0-18.45-8.05-18.45-17.59,0-9,6.41-17.46,18.46-17.46,13.17,0,17.02,8.6,17.41,12.28h-10.51c-.62-1.81-2.24-4.41-6.81-4.41-5.45,0-7.85,4.03-7.85,9.52s2.27,9.73,7.81,9.73c3.79,0,5.74-1.38,7.08-4.21h10.51Z" />
    <path
      d="M283.12,28.17c0,10.23-7.07,17.55-19.42,17.55s-18.71-8.33-18.71-17.55,6.55-17.5,19.14-17.5,18.99,9.25,18.99,17.5Zm-27.43,0c0,5.17,2.87,9.61,8.37,9.61s8.25-4.37,8.25-9.44-2.5-9.74-8.33-9.74-8.29,4.45-8.29,9.57Z" />
    <path
      d="M293.68,11.57c4.55,12.82,7.39,20.03,8.56,24.14h.12c1.22-4.15,3.51-10.58,8.47-24.14h10.7l-13.75,33.25h-11.73l-13.67-33.25h11.3Z" />
    <path
      d="M330.41,30.75c.27,4.02,3.19,7.16,8.17,7.16,3.97,0,5.84-1.21,7.05-3.26h10.51c-2,5.89-7,11.07-17.68,11.07-13.61,0-18.52-9.03-18.52-17.48,0-9.37,6.3-17.57,18.44-17.57,12.94,0,18.16,8.91,18.16,17.57,0,.84,0,1.44-.06,2.51h-26.08Zm15.47-6.44c-.21-2.54-1.58-6.28-7.5-6.28-5.52,0-7.53,3.01-7.84,6.28h15.34Z" />
  </g>
  <g>
    <path class="cls-2"
      d="M70.85,54.83c-22.63-8.94-45.27,8.94-67.9,0V5.16c22.63,8.94,45.27-8.94,67.9,0V54.83Z" />
    <path class="cls-1"
      d="M58.48,39.79c-14.39-.6-28.78,5.68-43.17,5.08V20.2c14.39,.6,28.78-5.68,43.17-5.08v24.67Z" />
  </g>
</svg>